<svg xmlns="http://www.w3.org/2000/svg" xmlns:xlink="http://www.w3.org/1999/xlink" width="500" zoomAndPan="magnify" viewBox="0 0 375 374.999991" height="500" preserveAspectRatio="xMidYMid meet" version="1.0"><defs><clipPath id="b3ceeb5de0"><path d="M 112.5 157 L 138 157 L 138 235.125 L 112.5 235.125 Z M 112.5 157 " clip-rule="nonzero"/></clipPath><clipPath id="4886ee4bdd"><path d="M 237.703125 157.617188 L 262.496094 157.617188 L 262.496094 235.121094 L 237.703125 235.121094 Z M 237.703125 157.617188 " clip-rule="nonzero"/></clipPath><clipPath id="5f498af28a"><path d="M 175 139.875 L 200 139.875 L 200 166 L 175 166 Z M 175 139.875 " clip-rule="nonzero"/></clipPath></defs><path fill="#4a87ce" d="M 163.644531 183.308594 C 161.804688 183.308594 160.089844 183.65625 158.5 184.351562 C 156.90625 185.046875 155.527344 185.984375 154.359375 187.167969 C 153.191406 188.347656 152.265625 189.730469 151.582031 191.320312 C 150.898438 192.914062 150.558594 194.601562 150.558594 196.390625 C 150.558594 198.179688 150.898438 199.871094 151.582031 201.460938 C 152.265625 203.050781 153.191406 204.4375 154.359375 205.617188 C 155.527344 206.796875 156.90625 207.738281 158.5 208.433594 C 160.089844 209.128906 161.804688 209.476562 163.644531 209.476562 C 165.457031 209.476562 167.160156 209.128906 168.75 208.433594 C 170.339844 207.738281 171.726562 206.792969 172.90625 205.597656 C 174.085938 204.40625 175.015625 203.019531 175.699219 201.441406 C 176.382812 199.863281 176.726562 198.179688 176.726562 196.390625 C 176.726562 194.601562 176.382812 192.917969 175.699219 191.339844 C 175.015625 189.761719 174.085938 188.378906 172.90625 187.183594 C 171.726562 185.992188 170.339844 185.046875 168.75 184.351562 C 167.160156 183.65625 165.457031 183.308594 163.644531 183.308594 Z M 184.515625 196.390625 C 184.515625 202.207031 182.476562 207.128906 178.402344 211.152344 C 174.277344 215.230469 169.359375 217.265625 163.644531 217.265625 C 157.875 217.265625 152.957031 215.230469 148.882812 211.152344 C 144.804688 207.078125 142.769531 202.15625 142.769531 196.390625 C 142.769531 190.625 144.804688 185.707031 148.882812 181.628906 C 152.957031 177.554688 157.875 175.515625 163.644531 175.515625 C 169.359375 175.515625 174.277344 177.554688 178.402344 181.628906 C 180.441406 183.667969 181.964844 185.917969 182.96875 188.378906 C 183.976562 190.839844 184.492188 193.507812 184.515625 196.390625 " fill-opacity="1" fill-rule="nonzero"/><path fill="#4a87ce" d="M 211.355469 183.308594 C 209.515625 183.308594 207.800781 183.65625 206.210938 184.351562 C 204.621094 185.046875 203.242188 185.984375 202.074219 187.167969 C 200.90625 188.347656 199.980469 189.730469 199.296875 191.320312 C 198.613281 192.914062 198.273438 194.601562 198.273438 196.390625 C 198.273438 198.179688 198.613281 199.871094 199.296875 201.460938 C 199.980469 203.050781 200.90625 204.4375 202.074219 205.617188 C 203.242188 206.796875 204.621094 207.738281 206.210938 208.433594 C 207.800781 209.128906 209.515625 209.476562 211.355469 209.476562 C 213.167969 209.476562 214.871094 209.128906 216.460938 208.433594 C 218.050781 207.738281 219.4375 206.792969 220.617188 205.597656 C 221.796875 204.40625 222.730469 203.019531 223.414062 201.441406 C 224.097656 199.863281 224.4375 198.179688 224.4375 196.390625 C 224.4375 194.601562 224.097656 192.917969 223.414062 191.339844 C 222.730469 189.761719 221.796875 188.378906 220.617188 187.183594 C 219.4375 185.992188 218.050781 185.046875 216.460938 184.351562 C 214.871094 183.65625 213.167969 183.308594 211.355469 183.308594 Z M 232.230469 196.390625 C 232.230469 202.207031 230.191406 207.128906 226.117188 211.152344 C 221.992188 215.230469 217.070312 217.265625 211.355469 217.265625 C 205.589844 217.265625 200.667969 215.230469 196.59375 211.152344 C 192.519531 207.078125 190.480469 202.15625 190.480469 196.390625 C 190.480469 190.625 192.519531 185.707031 196.59375 181.628906 C 200.667969 177.554688 205.589844 175.515625 211.355469 175.515625 C 217.070312 175.515625 221.992188 177.554688 226.117188 181.628906 C 228.152344 183.667969 229.675781 185.917969 230.683594 188.378906 C 231.6875 190.839844 232.203125 193.507812 232.230469 196.390625 " fill-opacity="1" fill-rule="nonzero"/><g clip-path="url(#b3ceeb5de0)"><path fill="#211d1d" d="M 133.375 157.664062 C 134.492188 157.664062 135.417969 158.042969 136.152344 158.800781 C 136.882812 159.558594 137.25 160.484375 137.25 161.574219 C 137.25 162.695312 136.882812 163.621094 136.152344 164.351562 C 135.417969 165.085938 134.492188 165.453125 133.375 165.453125 C 130.292969 165.453125 128.753906 166.992188 128.753906 170.074219 L 128.753906 187.894531 C 128.753906 191.472656 127.933594 194.304688 126.292969 196.390625 C 127.933594 198.480469 128.753906 201.3125 128.753906 204.890625 L 128.753906 222.707031 C 128.753906 225.789062 130.292969 227.332031 133.375 227.332031 C 134.492188 227.332031 135.417969 227.695312 136.152344 228.429688 C 136.882812 229.164062 137.25 230.089844 137.25 231.207031 C 137.25 232.324219 136.882812 233.257812 136.152344 234.003906 C 135.417969 234.75 134.492188 235.121094 133.375 235.121094 C 125.097656 235.121094 120.960938 230.984375 120.960938 222.707031 L 120.960938 204.890625 C 120.960938 201.808594 119.433594 200.269531 116.375 200.269531 C 115.257812 200.269531 114.332031 199.902344 113.597656 199.167969 C 112.867188 198.4375 112.5 197.511719 112.5 196.390625 C 112.5 195.273438 112.867188 194.347656 113.597656 193.613281 C 114.332031 192.882812 115.257812 192.515625 116.375 192.515625 C 119.433594 192.515625 120.960938 190.972656 120.960938 187.894531 L 120.960938 170.074219 C 120.960938 161.800781 125.097656 157.664062 133.375 157.664062 " fill-opacity="1" fill-rule="nonzero"/></g><g clip-path="url(#4886ee4bdd)"><path fill="#211d1d" d="M 254.035156 170.074219 L 254.035156 187.894531 C 254.035156 190.972656 255.5625 192.515625 258.621094 192.515625 C 259.738281 192.515625 260.664062 192.882812 261.398438 193.613281 C 262.132812 194.347656 262.496094 195.273438 262.496094 196.390625 C 262.496094 197.511719 262.132812 198.4375 261.398438 199.167969 C 260.664062 199.902344 259.738281 200.269531 258.621094 200.269531 C 255.5625 200.269531 254.035156 201.808594 254.035156 204.890625 L 254.035156 222.707031 C 254.035156 230.984375 249.898438 235.121094 241.621094 235.121094 C 240.503906 235.121094 239.578125 234.75 238.84375 234.003906 C 238.113281 233.257812 237.746094 232.324219 237.746094 231.207031 C 237.746094 230.089844 238.113281 229.164062 238.84375 228.429688 C 239.578125 227.695312 240.503906 227.332031 241.621094 227.332031 C 244.703125 227.332031 246.246094 225.789062 246.246094 222.707031 L 246.246094 204.890625 C 246.246094 201.3125 247.066406 198.480469 248.707031 196.390625 C 247.066406 194.304688 246.246094 191.472656 246.246094 187.894531 L 246.246094 170.074219 C 246.246094 166.992188 244.703125 165.453125 241.621094 165.453125 C 240.503906 165.453125 239.578125 165.085938 238.84375 164.351562 C 238.113281 163.621094 237.746094 162.695312 237.746094 161.574219 C 237.746094 160.484375 238.113281 159.558594 238.84375 158.800781 C 239.578125 158.042969 240.503906 157.664062 241.621094 157.664062 C 249.898438 157.664062 254.035156 161.800781 254.035156 170.074219 " fill-opacity="1" fill-rule="nonzero"/></g><g clip-path="url(#5f498af28a)"><path fill="#211d1d" d="M 199.167969 160.753906 C 199.167969 161.398438 199.042969 162 198.792969 162.5625 C 198.542969 163.121094 198.214844 163.609375 197.804688 164.035156 C 197.394531 164.457031 196.902344 164.785156 196.332031 165.019531 C 195.761719 165.257812 195.164062 165.375 194.542969 165.375 C 193.398438 165.375 192.417969 164.976562 191.597656 164.183594 C 190.777344 163.386719 190.109375 162.410156 189.585938 161.257812 C 189.0625 160.101562 188.683594 158.90625 188.449219 157.675781 C 188.214844 156.449219 188.09375 155.296875 188.09375 154.230469 C 188.09375 149.832031 189.972656 145.382812 193.722656 140.882812 C 194.394531 140.214844 195.152344 139.878906 195.996094 139.878906 C 196.867188 139.878906 197.613281 140.1875 198.234375 140.808594 C 198.855469 141.429688 199.167969 142.175781 199.167969 143.046875 C 199.167969 143.46875 199.078125 143.902344 198.90625 144.351562 C 197.785156 147.085938 197.226562 149.683594 197.226562 152.144531 C 197.226562 154.480469 197.734375 156.738281 198.753906 158.925781 C 199.03125 159.546875 199.167969 160.15625 199.167969 160.753906 Z M 186.902344 160.753906 C 186.902344 161.398438 186.777344 162 186.53125 162.5625 C 186.28125 163.121094 185.953125 163.609375 185.542969 164.035156 C 185.132812 164.457031 184.640625 164.785156 184.070312 165.019531 C 183.496094 165.257812 182.902344 165.375 182.28125 165.375 C 181.136719 165.375 180.15625 164.976562 179.335938 164.183594 C 178.515625 163.386719 177.84375 162.410156 177.324219 161.257812 C 176.800781 160.101562 176.421875 158.90625 176.183594 157.675781 C 175.949219 156.449219 175.832031 155.296875 175.832031 154.230469 C 175.832031 149.832031 177.707031 145.382812 181.460938 140.882812 C 182.128906 140.214844 182.886719 139.878906 183.734375 139.878906 C 184.601562 139.878906 185.347656 140.1875 185.96875 140.808594 C 186.589844 141.429688 186.902344 142.175781 186.902344 143.046875 C 186.902344 143.46875 186.816406 143.902344 186.640625 144.351562 C 185.523438 147.085938 184.964844 149.683594 184.964844 152.144531 C 184.964844 154.480469 185.472656 156.738281 186.492188 158.925781 C 186.765625 159.546875 186.902344 160.15625 186.902344 160.753906 " fill-opacity="1" fill-rule="nonzero"/></g></svg>